<mxfile host="app.diagrams.net" modified="2021-08-23T03:59:55.564Z" agent="5.0 (X11; Linux x86_64) AppleWebKit/537.36 (KHTML, like Gecko) Chrome/93.0.4577.42 Safari/537.36 Edg/93.0.961.24" etag="0w-SxXuszdSZFdZl_mca" version="14.9.8" type="github">
  <diagram id="2XpqbnvJ1-A6mXOjtxur" name="Page-1">
    <mxGraphModel dx="1125" dy="645" grid="1" gridSize="10" guides="1" tooltips="1" connect="1" arrows="1" fold="1" page="1" pageScale="1" pageWidth="850" pageHeight="1100" math="0" shadow="0">
      <root>
        <mxCell id="0" />
        <mxCell id="1" parent="0" />
        <mxCell id="-xsnN0STi-YPDqyDh629-22" value="" style="group;fillColor=#ffe6cc;strokeColor=#d79b00;" vertex="1" connectable="0" parent="1">
          <mxGeometry x="80" y="200" width="160" height="40" as="geometry" />
        </mxCell>
        <mxCell id="-xsnN0STi-YPDqyDh629-1" value="" style="rounded=0;whiteSpace=wrap;html=1;fillColor=#ffe6cc;strokeColor=#d79b00;" vertex="1" parent="-xsnN0STi-YPDqyDh629-22">
          <mxGeometry width="160" height="40" as="geometry" />
        </mxCell>
        <mxCell id="-xsnN0STi-YPDqyDh629-5" value="" style="endArrow=none;dashed=1;html=1;" edge="1" parent="-xsnN0STi-YPDqyDh629-22">
          <mxGeometry width="50" height="50" relative="1" as="geometry">
            <mxPoint x="40" y="40" as="sourcePoint" />
            <mxPoint x="40" as="targetPoint" />
          </mxGeometry>
        </mxCell>
        <mxCell id="-xsnN0STi-YPDqyDh629-8" value="" style="endArrow=none;dashed=1;html=1;" edge="1" parent="-xsnN0STi-YPDqyDh629-22">
          <mxGeometry width="50" height="50" relative="1" as="geometry">
            <mxPoint x="120" y="40" as="sourcePoint" />
            <mxPoint x="120" as="targetPoint" />
          </mxGeometry>
        </mxCell>
        <mxCell id="-xsnN0STi-YPDqyDh629-9" value="" style="endArrow=none;dashed=1;html=1;exitX=0.5;exitY=1;exitDx=0;exitDy=0;entryX=0.5;entryY=0;entryDx=0;entryDy=0;" edge="1" parent="-xsnN0STi-YPDqyDh629-22" source="-xsnN0STi-YPDqyDh629-1" target="-xsnN0STi-YPDqyDh629-1">
          <mxGeometry width="50" height="50" relative="1" as="geometry">
            <mxPoint x="130" y="50" as="sourcePoint" />
            <mxPoint x="130" y="10" as="targetPoint" />
          </mxGeometry>
        </mxCell>
        <mxCell id="-xsnN0STi-YPDqyDh629-23" value="" style="group;fillColor=#d5e8d4;strokeColor=#82b366;" vertex="1" connectable="0" parent="1">
          <mxGeometry x="560" y="200" width="160" height="40" as="geometry" />
        </mxCell>
        <mxCell id="-xsnN0STi-YPDqyDh629-24" value="" style="rounded=0;whiteSpace=wrap;html=1;fillColor=#d5e8d4;strokeColor=#82b366;" vertex="1" parent="-xsnN0STi-YPDqyDh629-23">
          <mxGeometry width="160" height="40" as="geometry" />
        </mxCell>
        <mxCell id="-xsnN0STi-YPDqyDh629-25" value="" style="endArrow=none;dashed=1;html=1;" edge="1" parent="-xsnN0STi-YPDqyDh629-23">
          <mxGeometry width="50" height="50" relative="1" as="geometry">
            <mxPoint x="40" y="40" as="sourcePoint" />
            <mxPoint x="40" as="targetPoint" />
          </mxGeometry>
        </mxCell>
        <mxCell id="-xsnN0STi-YPDqyDh629-26" value="" style="endArrow=none;dashed=1;html=1;" edge="1" parent="-xsnN0STi-YPDqyDh629-23">
          <mxGeometry width="50" height="50" relative="1" as="geometry">
            <mxPoint x="120" y="40" as="sourcePoint" />
            <mxPoint x="120" as="targetPoint" />
          </mxGeometry>
        </mxCell>
        <mxCell id="-xsnN0STi-YPDqyDh629-27" value="" style="endArrow=none;dashed=1;html=1;exitX=0.5;exitY=1;exitDx=0;exitDy=0;entryX=0.5;entryY=0;entryDx=0;entryDy=0;" edge="1" parent="-xsnN0STi-YPDqyDh629-23" source="-xsnN0STi-YPDqyDh629-24" target="-xsnN0STi-YPDqyDh629-24">
          <mxGeometry width="50" height="50" relative="1" as="geometry">
            <mxPoint x="130" y="50" as="sourcePoint" />
            <mxPoint x="130" y="10" as="targetPoint" />
          </mxGeometry>
        </mxCell>
        <mxCell id="-xsnN0STi-YPDqyDh629-28" value="" style="group;fillColor=#e1d5e7;strokeColor=#9673a6;" vertex="1" connectable="0" parent="1">
          <mxGeometry x="400" y="200" width="160" height="40" as="geometry" />
        </mxCell>
        <mxCell id="-xsnN0STi-YPDqyDh629-29" value="" style="rounded=0;whiteSpace=wrap;html=1;fillColor=#e1d5e7;strokeColor=#9673a6;" vertex="1" parent="-xsnN0STi-YPDqyDh629-28">
          <mxGeometry width="160" height="40" as="geometry" />
        </mxCell>
        <mxCell id="-xsnN0STi-YPDqyDh629-30" value="" style="endArrow=none;dashed=1;html=1;" edge="1" parent="-xsnN0STi-YPDqyDh629-28">
          <mxGeometry width="50" height="50" relative="1" as="geometry">
            <mxPoint x="40" y="40" as="sourcePoint" />
            <mxPoint x="40" as="targetPoint" />
          </mxGeometry>
        </mxCell>
        <mxCell id="-xsnN0STi-YPDqyDh629-31" value="" style="endArrow=none;dashed=1;html=1;" edge="1" parent="-xsnN0STi-YPDqyDh629-28">
          <mxGeometry width="50" height="50" relative="1" as="geometry">
            <mxPoint x="120" y="40" as="sourcePoint" />
            <mxPoint x="120" as="targetPoint" />
          </mxGeometry>
        </mxCell>
        <mxCell id="-xsnN0STi-YPDqyDh629-32" value="" style="endArrow=none;dashed=1;html=1;exitX=0.5;exitY=1;exitDx=0;exitDy=0;entryX=0.5;entryY=0;entryDx=0;entryDy=0;" edge="1" parent="-xsnN0STi-YPDqyDh629-28" source="-xsnN0STi-YPDqyDh629-29" target="-xsnN0STi-YPDqyDh629-29">
          <mxGeometry width="50" height="50" relative="1" as="geometry">
            <mxPoint x="130" y="50" as="sourcePoint" />
            <mxPoint x="130" y="10" as="targetPoint" />
          </mxGeometry>
        </mxCell>
        <mxCell id="-xsnN0STi-YPDqyDh629-93" value="&lt;font style=&quot;font-size: 14px&quot;&gt;1&lt;/font&gt;" style="text;html=1;strokeColor=none;fillColor=none;align=center;verticalAlign=middle;whiteSpace=wrap;rounded=0;" vertex="1" parent="-xsnN0STi-YPDqyDh629-28">
          <mxGeometry x="130" y="10" width="20" height="20" as="geometry" />
        </mxCell>
        <mxCell id="-xsnN0STi-YPDqyDh629-94" value="&lt;font style=&quot;font-size: 14px&quot;&gt;1&lt;/font&gt;" style="text;html=1;strokeColor=none;fillColor=none;align=center;verticalAlign=middle;whiteSpace=wrap;rounded=0;" vertex="1" parent="-xsnN0STi-YPDqyDh629-28">
          <mxGeometry x="90" y="10" width="20" height="20" as="geometry" />
        </mxCell>
        <mxCell id="-xsnN0STi-YPDqyDh629-95" value="&lt;font style=&quot;font-size: 14px&quot;&gt;1&lt;/font&gt;" style="text;html=1;strokeColor=none;fillColor=none;align=center;verticalAlign=middle;whiteSpace=wrap;rounded=0;" vertex="1" parent="-xsnN0STi-YPDqyDh629-28">
          <mxGeometry x="50" y="10" width="20" height="20" as="geometry" />
        </mxCell>
        <mxCell id="-xsnN0STi-YPDqyDh629-96" value="&lt;font style=&quot;font-size: 14px&quot;&gt;1&lt;/font&gt;" style="text;html=1;strokeColor=none;fillColor=none;align=center;verticalAlign=middle;whiteSpace=wrap;rounded=0;" vertex="1" parent="-xsnN0STi-YPDqyDh629-28">
          <mxGeometry x="10" y="10" width="20" height="20" as="geometry" />
        </mxCell>
        <mxCell id="-xsnN0STi-YPDqyDh629-33" value="" style="group;fillColor=#dae8fc;strokeColor=#6c8ebf;" vertex="1" connectable="0" parent="1">
          <mxGeometry x="240" y="200" width="160" height="40" as="geometry" />
        </mxCell>
        <mxCell id="-xsnN0STi-YPDqyDh629-34" value="" style="rounded=0;whiteSpace=wrap;html=1;fillColor=#dae8fc;strokeColor=#6c8ebf;" vertex="1" parent="-xsnN0STi-YPDqyDh629-33">
          <mxGeometry width="160" height="40" as="geometry" />
        </mxCell>
        <mxCell id="-xsnN0STi-YPDqyDh629-35" value="" style="endArrow=none;dashed=1;html=1;" edge="1" parent="-xsnN0STi-YPDqyDh629-33">
          <mxGeometry width="50" height="50" relative="1" as="geometry">
            <mxPoint x="40" y="40" as="sourcePoint" />
            <mxPoint x="40" as="targetPoint" />
          </mxGeometry>
        </mxCell>
        <mxCell id="-xsnN0STi-YPDqyDh629-36" value="" style="endArrow=none;dashed=1;html=1;" edge="1" parent="-xsnN0STi-YPDqyDh629-33">
          <mxGeometry width="50" height="50" relative="1" as="geometry">
            <mxPoint x="120" y="40" as="sourcePoint" />
            <mxPoint x="120" as="targetPoint" />
          </mxGeometry>
        </mxCell>
        <mxCell id="-xsnN0STi-YPDqyDh629-37" value="" style="endArrow=none;dashed=1;html=1;exitX=0.5;exitY=1;exitDx=0;exitDy=0;entryX=0.5;entryY=0;entryDx=0;entryDy=0;" edge="1" parent="-xsnN0STi-YPDqyDh629-33" source="-xsnN0STi-YPDqyDh629-34" target="-xsnN0STi-YPDqyDh629-34">
          <mxGeometry width="50" height="50" relative="1" as="geometry">
            <mxPoint x="130" y="50" as="sourcePoint" />
            <mxPoint x="130" y="10" as="targetPoint" />
          </mxGeometry>
        </mxCell>
        <mxCell id="-xsnN0STi-YPDqyDh629-52" value="" style="endArrow=classic;html=1;dashed=1;exitX=0.25;exitY=1;exitDx=0;exitDy=0;entryX=0;entryY=0;entryDx=0;entryDy=0;" edge="1" parent="1" source="-xsnN0STi-YPDqyDh629-34" target="-xsnN0STi-YPDqyDh629-41">
          <mxGeometry width="50" height="50" relative="1" as="geometry">
            <mxPoint x="120" y="380" as="sourcePoint" />
            <mxPoint x="170" y="330" as="targetPoint" />
          </mxGeometry>
        </mxCell>
        <mxCell id="-xsnN0STi-YPDqyDh629-53" value="" style="endArrow=classic;html=1;dashed=1;entryX=1;entryY=0;entryDx=0;entryDy=0;" edge="1" parent="1" target="-xsnN0STi-YPDqyDh629-41">
          <mxGeometry width="50" height="50" relative="1" as="geometry">
            <mxPoint x="320" y="240" as="sourcePoint" />
            <mxPoint x="400" y="290" as="targetPoint" />
          </mxGeometry>
        </mxCell>
        <mxCell id="-xsnN0STi-YPDqyDh629-56" value="&lt;font style=&quot;font-size: 14px&quot;&gt;1&lt;/font&gt;" style="text;html=1;strokeColor=none;fillColor=none;align=center;verticalAlign=middle;whiteSpace=wrap;rounded=0;" vertex="1" parent="1">
          <mxGeometry x="370" y="210" width="20" height="20" as="geometry" />
        </mxCell>
        <mxCell id="-xsnN0STi-YPDqyDh629-57" value="&lt;font style=&quot;font-size: 14px&quot;&gt;1&lt;/font&gt;" style="text;html=1;strokeColor=none;fillColor=none;align=center;verticalAlign=middle;whiteSpace=wrap;rounded=0;" vertex="1" parent="1">
          <mxGeometry x="330" y="210" width="20" height="20" as="geometry" />
        </mxCell>
        <mxCell id="-xsnN0STi-YPDqyDh629-58" value="&lt;font style=&quot;font-size: 14px&quot;&gt;1&lt;/font&gt;" style="text;html=1;strokeColor=none;fillColor=none;align=center;verticalAlign=middle;whiteSpace=wrap;rounded=0;" vertex="1" parent="1">
          <mxGeometry x="290" y="210" width="20" height="20" as="geometry" />
        </mxCell>
        <mxCell id="-xsnN0STi-YPDqyDh629-59" value="&lt;font style=&quot;font-size: 14px&quot;&gt;1&lt;/font&gt;" style="text;html=1;strokeColor=none;fillColor=none;align=center;verticalAlign=middle;whiteSpace=wrap;rounded=0;" vertex="1" parent="1">
          <mxGeometry x="250" y="210" width="20" height="20" as="geometry" />
        </mxCell>
        <mxCell id="-xsnN0STi-YPDqyDh629-68" value="" style="group;fillColor=#ffe6cc;strokeColor=#d79b00;" vertex="1" connectable="0" parent="1">
          <mxGeometry x="80" y="40" width="160" height="40" as="geometry" />
        </mxCell>
        <mxCell id="-xsnN0STi-YPDqyDh629-69" value="" style="rounded=0;whiteSpace=wrap;html=1;fillColor=#ffe6cc;strokeColor=#d79b00;" vertex="1" parent="-xsnN0STi-YPDqyDh629-68">
          <mxGeometry width="160" height="40" as="geometry" />
        </mxCell>
        <mxCell id="-xsnN0STi-YPDqyDh629-70" value="" style="endArrow=none;dashed=1;html=1;" edge="1" parent="-xsnN0STi-YPDqyDh629-68">
          <mxGeometry width="50" height="50" relative="1" as="geometry">
            <mxPoint x="40" y="40" as="sourcePoint" />
            <mxPoint x="40" as="targetPoint" />
          </mxGeometry>
        </mxCell>
        <mxCell id="-xsnN0STi-YPDqyDh629-71" value="" style="endArrow=none;dashed=1;html=1;" edge="1" parent="-xsnN0STi-YPDqyDh629-68">
          <mxGeometry width="50" height="50" relative="1" as="geometry">
            <mxPoint x="120" y="40" as="sourcePoint" />
            <mxPoint x="120" as="targetPoint" />
          </mxGeometry>
        </mxCell>
        <mxCell id="-xsnN0STi-YPDqyDh629-72" value="" style="endArrow=none;dashed=1;html=1;exitX=0.5;exitY=1;exitDx=0;exitDy=0;entryX=0.5;entryY=0;entryDx=0;entryDy=0;" edge="1" parent="-xsnN0STi-YPDqyDh629-68" source="-xsnN0STi-YPDqyDh629-69" target="-xsnN0STi-YPDqyDh629-69">
          <mxGeometry width="50" height="50" relative="1" as="geometry">
            <mxPoint x="130" y="50" as="sourcePoint" />
            <mxPoint x="130" y="10" as="targetPoint" />
          </mxGeometry>
        </mxCell>
        <mxCell id="-xsnN0STi-YPDqyDh629-73" value="" style="group;fillColor=#d5e8d4;strokeColor=#82b366;" vertex="1" connectable="0" parent="1">
          <mxGeometry x="560" y="40" width="160" height="40" as="geometry" />
        </mxCell>
        <mxCell id="-xsnN0STi-YPDqyDh629-74" value="" style="rounded=0;whiteSpace=wrap;html=1;fillColor=#d5e8d4;strokeColor=#82b366;" vertex="1" parent="-xsnN0STi-YPDqyDh629-73">
          <mxGeometry width="160" height="40" as="geometry" />
        </mxCell>
        <mxCell id="-xsnN0STi-YPDqyDh629-75" value="" style="endArrow=none;dashed=1;html=1;" edge="1" parent="-xsnN0STi-YPDqyDh629-73">
          <mxGeometry width="50" height="50" relative="1" as="geometry">
            <mxPoint x="40" y="40" as="sourcePoint" />
            <mxPoint x="40" as="targetPoint" />
          </mxGeometry>
        </mxCell>
        <mxCell id="-xsnN0STi-YPDqyDh629-76" value="" style="endArrow=none;dashed=1;html=1;" edge="1" parent="-xsnN0STi-YPDqyDh629-73">
          <mxGeometry width="50" height="50" relative="1" as="geometry">
            <mxPoint x="120" y="40" as="sourcePoint" />
            <mxPoint x="120" as="targetPoint" />
          </mxGeometry>
        </mxCell>
        <mxCell id="-xsnN0STi-YPDqyDh629-77" value="" style="endArrow=none;dashed=1;html=1;exitX=0.5;exitY=1;exitDx=0;exitDy=0;entryX=0.5;entryY=0;entryDx=0;entryDy=0;" edge="1" parent="-xsnN0STi-YPDqyDh629-73" source="-xsnN0STi-YPDqyDh629-74" target="-xsnN0STi-YPDqyDh629-74">
          <mxGeometry width="50" height="50" relative="1" as="geometry">
            <mxPoint x="130" y="50" as="sourcePoint" />
            <mxPoint x="130" y="10" as="targetPoint" />
          </mxGeometry>
        </mxCell>
        <mxCell id="-xsnN0STi-YPDqyDh629-78" value="" style="group;fillColor=#e1d5e7;strokeColor=#9673a6;" vertex="1" connectable="0" parent="1">
          <mxGeometry x="400" y="40" width="160" height="40" as="geometry" />
        </mxCell>
        <mxCell id="-xsnN0STi-YPDqyDh629-79" value="" style="rounded=0;whiteSpace=wrap;html=1;fillColor=#e1d5e7;strokeColor=#9673a6;" vertex="1" parent="-xsnN0STi-YPDqyDh629-78">
          <mxGeometry width="160" height="40" as="geometry" />
        </mxCell>
        <mxCell id="-xsnN0STi-YPDqyDh629-80" value="" style="endArrow=none;dashed=1;html=1;" edge="1" parent="-xsnN0STi-YPDqyDh629-78">
          <mxGeometry width="50" height="50" relative="1" as="geometry">
            <mxPoint x="40" y="40" as="sourcePoint" />
            <mxPoint x="40" as="targetPoint" />
          </mxGeometry>
        </mxCell>
        <mxCell id="-xsnN0STi-YPDqyDh629-81" value="" style="endArrow=none;dashed=1;html=1;" edge="1" parent="-xsnN0STi-YPDqyDh629-78">
          <mxGeometry width="50" height="50" relative="1" as="geometry">
            <mxPoint x="120" y="40" as="sourcePoint" />
            <mxPoint x="120" as="targetPoint" />
          </mxGeometry>
        </mxCell>
        <mxCell id="-xsnN0STi-YPDqyDh629-82" value="" style="endArrow=none;dashed=1;html=1;exitX=0.5;exitY=1;exitDx=0;exitDy=0;entryX=0.5;entryY=0;entryDx=0;entryDy=0;" edge="1" parent="-xsnN0STi-YPDqyDh629-78" source="-xsnN0STi-YPDqyDh629-79" target="-xsnN0STi-YPDqyDh629-79">
          <mxGeometry width="50" height="50" relative="1" as="geometry">
            <mxPoint x="130" y="50" as="sourcePoint" />
            <mxPoint x="130" y="10" as="targetPoint" />
          </mxGeometry>
        </mxCell>
        <mxCell id="-xsnN0STi-YPDqyDh629-83" value="" style="group;fillColor=#dae8fc;strokeColor=#6c8ebf;" vertex="1" connectable="0" parent="1">
          <mxGeometry x="240" y="40" width="160" height="40" as="geometry" />
        </mxCell>
        <mxCell id="-xsnN0STi-YPDqyDh629-84" value="" style="rounded=0;whiteSpace=wrap;html=1;fillColor=#dae8fc;strokeColor=#6c8ebf;" vertex="1" parent="-xsnN0STi-YPDqyDh629-83">
          <mxGeometry width="160" height="40" as="geometry" />
        </mxCell>
        <mxCell id="-xsnN0STi-YPDqyDh629-85" value="" style="endArrow=none;dashed=1;html=1;" edge="1" parent="-xsnN0STi-YPDqyDh629-83">
          <mxGeometry width="50" height="50" relative="1" as="geometry">
            <mxPoint x="40" y="40" as="sourcePoint" />
            <mxPoint x="40" as="targetPoint" />
          </mxGeometry>
        </mxCell>
        <mxCell id="-xsnN0STi-YPDqyDh629-86" value="" style="endArrow=none;dashed=1;html=1;" edge="1" parent="-xsnN0STi-YPDqyDh629-83">
          <mxGeometry width="50" height="50" relative="1" as="geometry">
            <mxPoint x="120" y="40" as="sourcePoint" />
            <mxPoint x="120" as="targetPoint" />
          </mxGeometry>
        </mxCell>
        <mxCell id="-xsnN0STi-YPDqyDh629-87" value="" style="endArrow=none;dashed=1;html=1;exitX=0.5;exitY=1;exitDx=0;exitDy=0;entryX=0.5;entryY=0;entryDx=0;entryDy=0;" edge="1" parent="-xsnN0STi-YPDqyDh629-83" source="-xsnN0STi-YPDqyDh629-84" target="-xsnN0STi-YPDqyDh629-84">
          <mxGeometry width="50" height="50" relative="1" as="geometry">
            <mxPoint x="130" y="50" as="sourcePoint" />
            <mxPoint x="130" y="10" as="targetPoint" />
          </mxGeometry>
        </mxCell>
        <mxCell id="-xsnN0STi-YPDqyDh629-97" value="&lt;font style=&quot;font-size: 14px&quot;&gt;1&lt;/font&gt;" style="text;html=1;strokeColor=none;fillColor=none;align=center;verticalAlign=middle;whiteSpace=wrap;rounded=0;" vertex="1" parent="1">
          <mxGeometry x="690" y="210" width="20" height="20" as="geometry" />
        </mxCell>
        <mxCell id="-xsnN0STi-YPDqyDh629-98" value="&lt;font style=&quot;font-size: 14px&quot;&gt;1&lt;/font&gt;" style="text;html=1;strokeColor=none;fillColor=none;align=center;verticalAlign=middle;whiteSpace=wrap;rounded=0;" vertex="1" parent="1">
          <mxGeometry x="650" y="210" width="20" height="20" as="geometry" />
        </mxCell>
        <mxCell id="-xsnN0STi-YPDqyDh629-99" value="&lt;font style=&quot;font-size: 14px&quot;&gt;1&lt;/font&gt;" style="text;html=1;strokeColor=none;fillColor=none;align=center;verticalAlign=middle;whiteSpace=wrap;rounded=0;" vertex="1" parent="1">
          <mxGeometry x="610" y="210" width="20" height="20" as="geometry" />
        </mxCell>
        <mxCell id="-xsnN0STi-YPDqyDh629-100" value="&lt;font style=&quot;font-size: 14px&quot;&gt;1&lt;/font&gt;" style="text;html=1;strokeColor=none;fillColor=none;align=center;verticalAlign=middle;whiteSpace=wrap;rounded=0;" vertex="1" parent="1">
          <mxGeometry x="570" y="210" width="20" height="20" as="geometry" />
        </mxCell>
        <mxCell id="-xsnN0STi-YPDqyDh629-101" value="&lt;font style=&quot;font-size: 14px&quot;&gt;1&lt;/font&gt;" style="text;html=1;strokeColor=none;fillColor=none;align=center;verticalAlign=middle;whiteSpace=wrap;rounded=0;" vertex="1" parent="1">
          <mxGeometry x="210" y="210" width="20" height="20" as="geometry" />
        </mxCell>
        <mxCell id="-xsnN0STi-YPDqyDh629-102" value="&lt;font style=&quot;font-size: 14px&quot;&gt;1&lt;/font&gt;" style="text;html=1;strokeColor=none;fillColor=none;align=center;verticalAlign=middle;whiteSpace=wrap;rounded=0;" vertex="1" parent="1">
          <mxGeometry x="170" y="210" width="20" height="20" as="geometry" />
        </mxCell>
        <mxCell id="-xsnN0STi-YPDqyDh629-103" value="&lt;font style=&quot;font-size: 14px&quot;&gt;1&lt;/font&gt;" style="text;html=1;strokeColor=none;fillColor=none;align=center;verticalAlign=middle;whiteSpace=wrap;rounded=0;" vertex="1" parent="1">
          <mxGeometry x="130" y="210" width="20" height="20" as="geometry" />
        </mxCell>
        <mxCell id="-xsnN0STi-YPDqyDh629-104" value="&lt;font style=&quot;font-size: 14px&quot;&gt;1&lt;/font&gt;" style="text;html=1;strokeColor=none;fillColor=none;align=center;verticalAlign=middle;whiteSpace=wrap;rounded=0;" vertex="1" parent="1">
          <mxGeometry x="90" y="210" width="20" height="20" as="geometry" />
        </mxCell>
        <mxCell id="-xsnN0STi-YPDqyDh629-105" value="int *p = static_cast&amp;lt;int*&amp;gt;(malloc(4 * sizeof (int)));" style="text;html=1;strokeColor=none;fillColor=none;align=center;verticalAlign=middle;whiteSpace=wrap;rounded=0;" vertex="1" parent="1">
          <mxGeometry x="240" width="320" height="20" as="geometry" />
        </mxCell>
        <mxCell id="-xsnN0STi-YPDqyDh629-106" value="memset(p, 1, 4 * sizeof(int));" style="text;html=1;strokeColor=none;fillColor=none;align=center;verticalAlign=middle;whiteSpace=wrap;rounded=0;" vertex="1" parent="1">
          <mxGeometry x="240" y="160" width="320" height="20" as="geometry" />
        </mxCell>
        <mxCell id="-xsnN0STi-YPDqyDh629-108" value="" style="group" vertex="1" connectable="0" parent="1">
          <mxGeometry x="200" y="360" width="160" height="20" as="geometry" />
        </mxCell>
        <mxCell id="-xsnN0STi-YPDqyDh629-41" value="" style="rounded=0;whiteSpace=wrap;html=1;fillColor=#bac8d3;strokeColor=#23445d;" vertex="1" parent="-xsnN0STi-YPDqyDh629-108">
          <mxGeometry width="160" height="19.51219512195122" as="geometry" />
        </mxCell>
        <mxCell id="-xsnN0STi-YPDqyDh629-107" value="" style="group" vertex="1" connectable="0" parent="-xsnN0STi-YPDqyDh629-108">
          <mxGeometry x="5" width="150" height="20" as="geometry" />
        </mxCell>
        <mxCell id="-xsnN0STi-YPDqyDh629-46" value="" style="endArrow=none;html=1;dashed=1;" edge="1" parent="-xsnN0STi-YPDqyDh629-107">
          <mxGeometry width="50" height="50" relative="1" as="geometry">
            <mxPoint x="135" y="20" as="sourcePoint" />
            <mxPoint x="135" y="0.4878048780487805" as="targetPoint" />
          </mxGeometry>
        </mxCell>
        <mxCell id="-xsnN0STi-YPDqyDh629-47" value="" style="endArrow=none;html=1;entryX=0.372;entryY=0.05;entryDx=0;entryDy=0;dashed=1;entryPerimeter=0;" edge="1" parent="-xsnN0STi-YPDqyDh629-107" target="-xsnN0STi-YPDqyDh629-41">
          <mxGeometry width="50" height="50" relative="1" as="geometry">
            <mxPoint x="54.5" y="19.51219512195122" as="sourcePoint" />
            <mxPoint x="45" y="9.75609756097561" as="targetPoint" />
          </mxGeometry>
        </mxCell>
        <mxCell id="-xsnN0STi-YPDqyDh629-50" value="" style="endArrow=none;html=1;exitX=0.75;exitY=1;exitDx=0;exitDy=0;entryX=0.75;entryY=0;entryDx=0;entryDy=0;dashed=1;" edge="1" parent="-xsnN0STi-YPDqyDh629-107">
          <mxGeometry width="50" height="50" relative="1" as="geometry">
            <mxPoint x="94.75999999999999" y="19.51219512195122" as="sourcePoint" />
            <mxPoint x="94.75999999999999" as="targetPoint" />
          </mxGeometry>
        </mxCell>
        <mxCell id="-xsnN0STi-YPDqyDh629-51" value="" style="endArrow=none;html=1;exitX=0.75;exitY=1;exitDx=0;exitDy=0;entryX=0.75;entryY=0;entryDx=0;entryDy=0;dashed=1;" edge="1" parent="-xsnN0STi-YPDqyDh629-107">
          <mxGeometry width="50" height="50" relative="1" as="geometry">
            <mxPoint x="15" y="19.51219512195122" as="sourcePoint" />
            <mxPoint x="15" as="targetPoint" />
          </mxGeometry>
        </mxCell>
        <mxCell id="-xsnN0STi-YPDqyDh629-60" value="&lt;font style=&quot;font-size: 14px&quot;&gt;0&lt;/font&gt;" style="text;html=1;strokeColor=none;fillColor=none;align=center;verticalAlign=middle;whiteSpace=wrap;rounded=0;" vertex="1" parent="-xsnN0STi-YPDqyDh629-107">
          <mxGeometry x="80" y="4.878048780487805" width="10" height="9.75609756097561" as="geometry" />
        </mxCell>
        <mxCell id="-xsnN0STi-YPDqyDh629-61" value="&lt;font style=&quot;font-size: 14px&quot;&gt;0&lt;/font&gt;" style="text;html=1;strokeColor=none;fillColor=none;align=center;verticalAlign=middle;whiteSpace=wrap;rounded=0;" vertex="1" parent="-xsnN0STi-YPDqyDh629-107">
          <mxGeometry x="100" y="4.878048780487805" width="10" height="9.75609756097561" as="geometry" />
        </mxCell>
        <mxCell id="-xsnN0STi-YPDqyDh629-62" value="&lt;font style=&quot;font-size: 14px&quot;&gt;0&lt;/font&gt;" style="text;html=1;strokeColor=none;fillColor=none;align=center;verticalAlign=middle;whiteSpace=wrap;rounded=0;" vertex="1" parent="-xsnN0STi-YPDqyDh629-107">
          <mxGeometry x="120" y="4.878048780487805" width="10" height="9.75609756097561" as="geometry" />
        </mxCell>
        <mxCell id="-xsnN0STi-YPDqyDh629-63" value="&lt;font style=&quot;font-size: 14px&quot;&gt;1&lt;/font&gt;" style="text;html=1;strokeColor=none;fillColor=none;align=center;verticalAlign=middle;whiteSpace=wrap;rounded=0;" vertex="1" parent="-xsnN0STi-YPDqyDh629-107">
          <mxGeometry x="140" y="4.878048780487805" width="10" height="9.75609756097561" as="geometry" />
        </mxCell>
        <mxCell id="-xsnN0STi-YPDqyDh629-64" value="&lt;font style=&quot;font-size: 14px&quot;&gt;0&lt;/font&gt;" style="text;html=1;strokeColor=none;fillColor=none;align=center;verticalAlign=middle;whiteSpace=wrap;rounded=0;" vertex="1" parent="-xsnN0STi-YPDqyDh629-107">
          <mxGeometry y="4.878048780487805" width="10" height="9.75609756097561" as="geometry" />
        </mxCell>
        <mxCell id="-xsnN0STi-YPDqyDh629-65" value="&lt;font style=&quot;font-size: 14px&quot;&gt;0&lt;/font&gt;" style="text;html=1;strokeColor=none;fillColor=none;align=center;verticalAlign=middle;whiteSpace=wrap;rounded=0;" vertex="1" parent="-xsnN0STi-YPDqyDh629-107">
          <mxGeometry x="20" y="4.878048780487805" width="10" height="9.75609756097561" as="geometry" />
        </mxCell>
        <mxCell id="-xsnN0STi-YPDqyDh629-66" value="&lt;font style=&quot;font-size: 14px&quot;&gt;0&lt;/font&gt;" style="text;html=1;strokeColor=none;fillColor=none;align=center;verticalAlign=middle;whiteSpace=wrap;rounded=0;" vertex="1" parent="-xsnN0STi-YPDqyDh629-107">
          <mxGeometry x="40" y="4.878048780487805" width="10" height="9.75609756097561" as="geometry" />
        </mxCell>
        <mxCell id="-xsnN0STi-YPDqyDh629-67" value="&lt;font style=&quot;font-size: 14px&quot;&gt;0&lt;/font&gt;" style="text;html=1;strokeColor=none;fillColor=none;align=center;verticalAlign=middle;whiteSpace=wrap;rounded=0;" vertex="1" parent="-xsnN0STi-YPDqyDh629-107">
          <mxGeometry x="60" y="4.878048780487805" width="10" height="9.75609756097561" as="geometry" />
        </mxCell>
        <mxCell id="-xsnN0STi-YPDqyDh629-43" value="" style="endArrow=none;html=1;exitX=0.25;exitY=1;exitDx=0;exitDy=0;entryX=0.25;entryY=0;entryDx=0;entryDy=0;dashed=1;" edge="1" parent="-xsnN0STi-YPDqyDh629-108" source="-xsnN0STi-YPDqyDh629-41" target="-xsnN0STi-YPDqyDh629-41">
          <mxGeometry width="50" height="50" relative="1" as="geometry">
            <mxPoint x="125" y="200.48780487804876" as="sourcePoint" />
            <mxPoint x="125" y="180" as="targetPoint" />
          </mxGeometry>
        </mxCell>
        <mxCell id="-xsnN0STi-YPDqyDh629-49" value="" style="endArrow=none;html=1;exitX=0.5;exitY=1;exitDx=0;exitDy=0;entryX=0.5;entryY=0;entryDx=0;entryDy=0;dashed=1;" edge="1" parent="-xsnN0STi-YPDqyDh629-108" source="-xsnN0STi-YPDqyDh629-41" target="-xsnN0STi-YPDqyDh629-41">
          <mxGeometry width="50" height="50" relative="1" as="geometry">
            <mxPoint x="160" y="214.6341463414634" as="sourcePoint" />
            <mxPoint x="160" y="195.1219512195122" as="targetPoint" />
          </mxGeometry>
        </mxCell>
        <mxCell id="-xsnN0STi-YPDqyDh629-48" value="" style="endArrow=none;html=1;exitX=0.75;exitY=1;exitDx=0;exitDy=0;entryX=0.75;entryY=0;entryDx=0;entryDy=0;dashed=1;" edge="1" parent="-xsnN0STi-YPDqyDh629-108" source="-xsnN0STi-YPDqyDh629-41" target="-xsnN0STi-YPDqyDh629-41">
          <mxGeometry width="50" height="50" relative="1" as="geometry">
            <mxPoint x="155" y="209.7560975609756" as="sourcePoint" />
            <mxPoint x="155" y="190.2439024390244" as="targetPoint" />
          </mxGeometry>
        </mxCell>
        <mxCell id="-xsnN0STi-YPDqyDh629-110" value="" style="group" vertex="1" connectable="0" parent="1">
          <mxGeometry x="40" y="360" width="160" height="20" as="geometry" />
        </mxCell>
        <mxCell id="-xsnN0STi-YPDqyDh629-111" value="..." style="rounded=0;whiteSpace=wrap;html=1;fillColor=#bac8d3;strokeColor=#23445d;" vertex="1" parent="-xsnN0STi-YPDqyDh629-110">
          <mxGeometry x="80" width="80" height="19.51" as="geometry" />
        </mxCell>
        <mxCell id="-xsnN0STi-YPDqyDh629-129" value="" style="group" vertex="1" connectable="0" parent="1">
          <mxGeometry x="360" y="360" width="160" height="20" as="geometry" />
        </mxCell>
        <mxCell id="-xsnN0STi-YPDqyDh629-130" value="... ..." style="rounded=0;whiteSpace=wrap;html=1;fillColor=#bac8d3;strokeColor=#23445d;" vertex="1" parent="-xsnN0STi-YPDqyDh629-129">
          <mxGeometry width="160" height="19.51219512195122" as="geometry" />
        </mxCell>
        <mxCell id="-xsnN0STi-YPDqyDh629-150" value="" style="endArrow=classic;html=1;exitX=1;exitY=1;exitDx=0;exitDy=0;entryX=0;entryY=0;entryDx=0;entryDy=0;" edge="1" parent="1" source="-xsnN0STi-YPDqyDh629-1" target="-xsnN0STi-YPDqyDh629-111">
          <mxGeometry width="50" height="50" relative="1" as="geometry">
            <mxPoint x="80" y="340" as="sourcePoint" />
            <mxPoint x="130" y="290" as="targetPoint" />
          </mxGeometry>
        </mxCell>
        <mxCell id="-xsnN0STi-YPDqyDh629-151" value="" style="endArrow=classic;html=1;exitX=1;exitY=1;exitDx=0;exitDy=0;entryX=1;entryY=0;entryDx=0;entryDy=0;" edge="1" parent="1" source="-xsnN0STi-YPDqyDh629-34" target="-xsnN0STi-YPDqyDh629-130">
          <mxGeometry width="50" height="50" relative="1" as="geometry">
            <mxPoint x="460" y="350" as="sourcePoint" />
            <mxPoint x="510" y="300" as="targetPoint" />
          </mxGeometry>
        </mxCell>
        <mxCell id="-xsnN0STi-YPDqyDh629-152" value="" style="shape=curlyBracket;whiteSpace=wrap;html=1;rounded=1;flipH=1;rotation=90;" vertex="1" parent="1">
          <mxGeometry x="310" y="200" width="20" height="400" as="geometry" />
        </mxCell>
        <mxCell id="-xsnN0STi-YPDqyDh629-153" value="&lt;font style=&quot;font-size: 14px&quot;&gt;&lt;i&gt;&lt;b&gt;00000001_00000001_00000001_00000001&lt;/b&gt;&lt;/i&gt;&lt;/font&gt;" style="text;html=1;strokeColor=none;fillColor=none;align=center;verticalAlign=middle;whiteSpace=wrap;rounded=0;" vertex="1" parent="1">
          <mxGeometry x="200" y="420" width="240" height="20" as="geometry" />
        </mxCell>
        <mxCell id="-xsnN0STi-YPDqyDh629-154" value="0x&lt;i&gt;&lt;b&gt;&lt;font style=&quot;font-size: 14px&quot; color=&quot;#67ab9f&quot;&gt;01010101&lt;/font&gt;&lt;/b&gt;&lt;/i&gt;" style="text;html=1;strokeColor=none;fillColor=none;align=center;verticalAlign=middle;whiteSpace=wrap;rounded=0;" vertex="1" parent="1">
          <mxGeometry x="200" y="460" width="240" height="20" as="geometry" />
        </mxCell>
        <mxCell id="-xsnN0STi-YPDqyDh629-155" value="0d&lt;font color=&quot;#ea6b66&quot; size=&quot;1&quot;&gt;&lt;i&gt;&lt;b style=&quot;font-size: 14px&quot;&gt;16843009&lt;/b&gt;&lt;/i&gt;&lt;/font&gt;" style="text;html=1;strokeColor=none;fillColor=none;align=center;verticalAlign=middle;whiteSpace=wrap;rounded=0;" vertex="1" parent="1">
          <mxGeometry x="200" y="500" width="240" height="20" as="geometry" />
        </mxCell>
        <mxCell id="-xsnN0STi-YPDqyDh629-156" value="" style="endArrow=classic;html=1;" edge="1" parent="1">
          <mxGeometry width="50" height="50" relative="1" as="geometry">
            <mxPoint x="560" y="430" as="sourcePoint" />
            <mxPoint x="460" y="430" as="targetPoint" />
          </mxGeometry>
        </mxCell>
        <mxCell id="-xsnN0STi-YPDqyDh629-157" value="" style="endArrow=classic;html=1;" edge="1" parent="1">
          <mxGeometry width="50" height="50" relative="1" as="geometry">
            <mxPoint x="560" y="469.58" as="sourcePoint" />
            <mxPoint x="460" y="469.58" as="targetPoint" />
          </mxGeometry>
        </mxCell>
        <mxCell id="-xsnN0STi-YPDqyDh629-158" value="" style="endArrow=classic;html=1;" edge="1" parent="1">
          <mxGeometry width="50" height="50" relative="1" as="geometry">
            <mxPoint x="560" y="509.58" as="sourcePoint" />
            <mxPoint x="460" y="509.58" as="targetPoint" />
          </mxGeometry>
        </mxCell>
        <mxCell id="-xsnN0STi-YPDqyDh629-159" value="二进制" style="text;html=1;strokeColor=none;fillColor=none;align=center;verticalAlign=middle;whiteSpace=wrap;rounded=0;" vertex="1" parent="1">
          <mxGeometry x="560" y="420" width="40" height="20" as="geometry" />
        </mxCell>
        <mxCell id="-xsnN0STi-YPDqyDh629-160" value="八进制" style="text;html=1;strokeColor=none;fillColor=none;align=center;verticalAlign=middle;whiteSpace=wrap;rounded=0;" vertex="1" parent="1">
          <mxGeometry x="560" y="460" width="40" height="20" as="geometry" />
        </mxCell>
        <mxCell id="-xsnN0STi-YPDqyDh629-161" value="十进制" style="text;html=1;strokeColor=none;fillColor=none;align=center;verticalAlign=middle;whiteSpace=wrap;rounded=0;" vertex="1" parent="1">
          <mxGeometry x="560" y="500" width="40" height="20" as="geometry" />
        </mxCell>
        <mxCell id="-xsnN0STi-YPDqyDh629-162" value="" style="endArrow=classic;html=1;entryX=0.732;entryY=-0.042;entryDx=0;entryDy=0;entryPerimeter=0;" edge="1" parent="1" target="-xsnN0STi-YPDqyDh629-106">
          <mxGeometry width="50" height="50" relative="1" as="geometry">
            <mxPoint x="560" y="140" as="sourcePoint" />
            <mxPoint x="680" y="120" as="targetPoint" />
          </mxGeometry>
        </mxCell>
        <mxCell id="-xsnN0STi-YPDqyDh629-163" value="&lt;font color=&quot;#ea6b66&quot;&gt;&lt;i&gt;忽略数据类型，只对每个字节赋值&lt;/i&gt;&lt;/font&gt;" style="text;html=1;align=left;verticalAlign=middle;whiteSpace=wrap;rounded=0;" vertex="1" parent="1">
          <mxGeometry x="560" y="120" width="120" height="40" as="geometry" />
        </mxCell>
      </root>
    </mxGraphModel>
  </diagram>
</mxfile>
